<mxfile host="app.diagrams.net" modified="2023-12-06T05:14:14.634Z" agent="Mozilla/5.0 (Macintosh; Intel Mac OS X 10_15_7) AppleWebKit/605.1.15 (KHTML, like Gecko) Version/15.4 Safari/605.1.15" version="21.6.2" etag="TC9SZ7nNUq0cawdC6XaQ" type="github">
  <diagram name="第 1 页" id="W3bqu-RLKvKwS7wFcptD">
    <mxGraphModel>
      <root>
        <mxCell id="0" />
        <mxCell id="1" parent="0" />
      </root>
    </mxGraphModel>
  </diagram>
</mxfile>
